<svg xmlns="http://www.w3.org/2000/svg" width="47.594" height="47.59" viewBox="0 0 47.594 47.59">
  <metadata><?xpacket begin="﻿" id="W5M0MpCehiHzreSzNTczkc9d"?>
<x:xmpmeta xmlns:x="adobe:ns:meta/" x:xmptk="Adobe XMP Core 5.6-c138 79.159824, 2016/09/14-01:09:01        ">
   <rdf:RDF xmlns:rdf="http://www.w3.org/1999/02/22-rdf-syntax-ns#">
      <rdf:Description rdf:about=""/>
   </rdf:RDF>
</x:xmpmeta>
                                                                                                    
                                                                                                    
                                                                                                    
                                                                                                    
                                                                                                    
                                                                                                    
                                                                                                    
                                                                                                    
                                                                                                    
                                                                                                    
                                                                                                    
                                                                                                    
                                                                                                    
                                                                                                    
                                                                                                    
                                                                                                    
                                                                                                    
                                                                                                    
                                                                                                    
                                                                                                    
                           
<?xpacket end="w"?></metadata>
<defs>
    <style>
      .cls-1 {
        fill-rule: evenodd;
      }
    </style>
  </defs>
  <path id="icon" class="cls-1" d="M547.668,1135.47a1.591,1.591,0,0,0-2.248,0l-13.847,13.84-19.467,8.58-3-3,8.576-19.47,13.844-13.84a1.59,1.59,0,1,0-2.248-2.25l-14.268,14.26-14.477,32.87,32.868-14.47,14.266-14.27A1.592,1.592,0,0,0,547.668,1135.47Zm-20.173,11a1.606,1.606,0,0,0,2.25,0l13.332-13.34a1.591,1.591,0,0,0-2.25-2.25L527.5,1144.22A1.593,1.593,0,0,0,527.5,1146.47Zm-3.48-3.48a1.606,1.606,0,0,0,2.25,0l13.333-13.34a1.591,1.591,0,0,0-2.25-2.25l-13.333,13.33A1.6,1.6,0,0,0,524.015,1142.99Zm-3.481-3.49a1.581,1.581,0,0,0,2.25,0l13.333-13.33a1.591,1.591,0,0,0-2.25-2.25l-13.333,13.33A1.593,1.593,0,0,0,520.534,1139.5Z" transform="translate(-500.531 -1118.88)"/>
</svg>
