<?xml version="1.0" encoding="utf-8"?>
<!-- Generator: Adobe Illustrator 22.0.0, SVG Export Plug-In . SVG Version: 6.00 Build 0)  -->
<svg version="1.1" id="Layer_1" xmlns="http://www.w3.org/2000/svg" xmlns:xlink="http://www.w3.org/1999/xlink" x="0px" y="0px"
	 viewBox="0 0 43.56 43.57" style="enable-background:new 0 0 43.56 43.57;" xml:space="preserve">
<path d="M43.55,21.79c-0.044-1.685-1.062-3.192-2.61-3.86c-2.489-0.57-4.044-3.049-3.474-5.538c0.116-0.507,0.317-0.991,0.594-1.432
	c0.902-2.114-0.081-4.558-2.195-5.46c-1.043-0.445-2.222-0.445-3.265,0c-1.321,0.626-2.824,0.751-4.23,0.35
	c-1.281-0.706-2.257-1.859-2.74-3.24c-0.869-2.135-3.304-3.161-5.438-2.292C19.15,0.742,18.324,1.569,17.9,2.61
	c-0.575,2.494-3.062,4.05-5.556,3.475c-0.5-0.115-0.978-0.313-1.414-0.585C8.816,4.598,6.372,5.581,5.47,7.695
	c-0.445,1.043-0.445,2.222,0,3.265c1.356,2.172,0.694,5.032-1.478,6.388c-0.432,0.27-0.906,0.467-1.402,0.582
	c-2.132,0.855-3.167,3.277-2.312,5.408c0.423,1.054,1.258,1.889,2.312,2.312c2.489,0.57,4.044,3.049,3.474,5.538
	c-0.116,0.507-0.317,0.991-0.594,1.432c-0.902,2.114,0.081,4.558,2.195,5.46c1.043,0.445,2.222,0.445,3.265,0
	c2.171-1.355,5.03-0.694,6.385,1.476c0.272,0.436,0.47,0.913,0.585,1.414c0.869,2.135,3.304,3.161,5.438,2.292
	c1.041-0.424,1.868-1.25,2.292-2.292c0.569-2.492,3.051-4.05,5.543-3.481c0.505,0.115,0.988,0.315,1.427,0.591
	c2.114,0.902,4.558-0.081,5.46-2.195c0.445-1.043,0.445-2.222,0-3.265c-1.361-2.161-0.712-5.015,1.448-6.375
	c0.44-0.277,0.924-0.478,1.432-0.594C42.488,24.982,43.506,23.475,43.55,21.79z M21.76,29.78c-4.41-0.003-7.983-3.58-7.98-7.99
	c0.003-4.41,3.58-7.983,7.99-7.98c4.41,0.003,7.983,3.58,7.98,7.99l0,0c0,4.407-3.571,7.979-7.978,7.98
	C21.768,29.78,21.764,29.78,21.76,29.78z"/>
</svg>
