<svg xmlns="http://www.w3.org/2000/svg" width="63" height="55" viewBox="0 0 63 55">
  <metadata><?xpacket begin="﻿" id="W5M0MpCehiHzreSzNTczkc9d"?>
<x:xmpmeta xmlns:x="adobe:ns:meta/" x:xmptk="Adobe XMP Core 5.6-c138 79.159824, 2016/09/14-01:09:01        ">
   <rdf:RDF xmlns:rdf="http://www.w3.org/1999/02/22-rdf-syntax-ns#">
      <rdf:Description rdf:about=""/>
   </rdf:RDF>
</x:xmpmeta>
                                                                                                    
                                                                                                    
                                                                                                    
                                                                                                    
                                                                                                    
                                                                                                    
                                                                                                    
                                                                                                    
                                                                                                    
                                                                                                    
                                                                                                    
                                                                                                    
                                                                                                    
                                                                                                    
                                                                                                    
                                                                                                    
                                                                                                    
                                                                                                    
                                                                                                    
                                                                                                    
                           
<?xpacket end="w"?></metadata>
<defs>
    <style>
      .cls-1 {
        fill-rule: evenodd;
      }
    </style>
  </defs>
  <path id="logos" class="cls-1" d="M36.746,10.689h-10.5l5.251,9.171Zm-11.816.765-5.251,9.17h10.5Zm18.38,9.17-5.251-9.17-5.251,9.17h10.5Zm-10.5,1.527,5.251,9.167,5.251-9.167h-10.5Zm-13.129,0,5.251,9.167,5.251-9.167h-10.5Zm-6.564,9.93h10.5l-5.25-9.166Zm36.76,0-5.251-9.166-5.249,9.166h10.5ZM31.495-.006l-5.251,9.17h10.5ZM44.624,42.777l5.251-9.167h-10.5Zm-26.258,0,5.25-9.167h-10.5ZM6.55,43.543h10.5l-5.25-9.17Zm49.889,0-5.251-9.17-5.251,9.17h10.5Zm-10.5,1.527,5.251,9.166,5.251-9.166h-10.5Zm-13.129,0,5.251,9.166L43.31,45.07h-10.5ZM11.8,54.236l5.25-9.166H6.55ZM-0.013,55h10.5L5.236,45.835Zm26.256,0h10.5l-5.251-9.168Zm13.131,0h10.5l-5.251-9.168Zm18.378-9.168L52.5,55H63Z"/>
</svg>
